<?xml version="1.0" standalone="no"?>
<!DOCTYPE svg PUBLIC "-//W3C//DTD SVG 20010904//EN"
 "http://www.w3.org/TR/2001/REC-SVG-20010904/DTD/svg10.dtd">
<svg version="1.0" xmlns="http://www.w3.org/2000/svg"
 width="800.000000pt" height="800.000000pt" viewBox="0 0 800.000000 800.000000"
 preserveAspectRatio="xMidYMid meet">

<g transform="translate(0.000000,800.000000) scale(0.100000,-0.100000)"
fill="#000000" stroke="none">
<path d="M2494 5533 c-20 -38 -45 -81 -55 -98 -18 -32 -106 -193 -172 -315
-22 -41 -43 -79 -47 -85 -4 -5 -27 -46 -50 -90 -24 -44 -66 -120 -93 -170 -27
-49 -101 -184 -164 -298 -62 -114 -122 -222 -132 -240 -9 -18 -52 -96 -95
-174 -43 -79 -81 -145 -86 -148 -9 -6 -14 7 -146 388 -19 56 -39 111 -43 122
-9 20 0 38 154 330 240 455 435 827 435 831 0 2 -284 4 -631 4 l-630 0 -195
-394 c-107 -217 -194 -399 -194 -405 0 -6 7 -25 15 -43 8 -18 51 -132 96 -253
85 -230 129 -349 408 -1097 94 -252 171 -462 171 -467 0 -5 4 -12 10 -16 5 -3
242 -6 527 -5 l518 0 15 22 c8 12 44 76 79 142 113 215 442 839 481 911 37 69
261 493 368 695 30 58 83 157 117 220 34 63 90 169 125 235 125 238 163 311
201 381 22 39 39 74 39 78 0 3 -223 6 -495 6 l-494 0 -37 -67z"/>
<path d="M3852 5588 c-5 -7 -71 -130 -147 -273 -76 -143 -154 -291 -175 -330
-21 -38 -82 -153 -135 -255 -178 -337 -277 -524 -305 -575 -15 -27 -52 -97
-83 -155 -93 -178 -327 -621 -367 -695 -20 -38 -61 -115 -90 -170 -29 -55 -68
-128 -86 -162 -19 -34 -34 -64 -34 -65 0 -2 224 -2 497 -1 l496 3 55 102 c29
57 110 209 179 338 69 129 146 273 171 320 25 47 77 146 117 220 40 74 96 180
125 235 29 55 85 161 125 235 40 74 94 176 120 225 26 50 62 117 80 150 18 33
88 164 155 290 67 127 137 257 155 290 90 167 145 273 145 279 0 3 -222 6
-494 6 -383 0 -496 -3 -504 -12z"/>
<path d="M5173 5588 c-6 -7 -59 -107 -118 -223 -59 -115 -131 -255 -160 -310
-158 -302 -237 -457 -233 -460 2 -2 178 -7 391 -11 213 -4 387 -9 387 -12 0
-6 -276 -535 -400 -767 -20 -38 -65 -124 -100 -190 -34 -66 -79 -151 -100
-190 -21 -38 -62 -117 -92 -175 -31 -58 -83 -157 -117 -221 -33 -64 -61 -118
-61 -120 0 -2 227 -2 505 1 l506 5 167 310 c93 171 230 425 306 565 76 140
154 284 174 320 19 36 45 83 57 105 12 22 61 112 108 201 l87 161 212 6 c116
4 315 7 442 7 l231 0 26 48 c15 26 65 119 111 207 47 88 104 196 128 240 24
44 75 141 115 215 40 74 91 170 114 212 22 43 41 80 41 83 0 3 -611 5 -1359 5
-1075 0 -1361 -3 -1368 -12z"/>
<path d="M6128 2735 c-23 -30 -22 -35 0 -35 10 0 31 14 47 30 l29 30 -30 0
c-19 -1 -35 -9 -46 -25z"/>
<path d="M470 2740 c0 -16 39 -242 45 -257 2 -7 19 -13 37 -13 32 0 36 5 83
93 27 50 61 114 77 140 l28 48 -31 -3 c-18 -2 -36 -10 -41 -18 -4 -8 -30 -55
-57 -103 l-49 -89 -11 54 c-6 29 -14 76 -18 103 -8 45 -11 50 -36 53 -15 2
-27 -2 -27 -8z"/>
<path d="M1805 2738 c-4 -14 -55 -257 -55 -265 0 -2 12 -3 27 -1 26 3 28 7 55
133 15 72 27 133 28 138 0 12 -50 8 -55 -5z"/>
<path d="M2785 2708 c-10 -58 -11 -59 -45 -41 -50 25 -109 -8 -131 -74 -24
-75 18 -144 79 -128 15 4 43 6 63 6 l36 -1 27 126 c15 70 30 133 33 140 4 10
-4 14 -25 14 -28 0 -31 -3 -37 -42z m-35 -128 c0 -59 -46 -100 -78 -68 -25 25
-6 113 27 121 32 7 51 -12 51 -53z"/>
<path d="M3164 2609 l-30 -140 30 3 c29 3 30 4 51 108 39 187 38 170 7 170
-28 0 -28 -1 -58 -141z"/>
<path d="M3656 2708 c-9 -56 -13 -60 -41 -42 -70 46 -160 -56 -134 -151 12
-43 45 -61 86 -49 15 4 43 7 61 5 17 -1 32 0 32 4 0 5 39 183 55 253 5 19 1
22 -24 22 -26 0 -29 -4 -35 -42z m-31 -107 c9 -28 -19 -88 -45 -96 -51 -16
-70 66 -25 111 20 20 29 23 44 14 11 -5 22 -19 26 -29z"/>
<path d="M4457 2729 c-3 -12 0 -22 9 -26 21 -8 41 3 47 26 4 18 1 21 -23 21
-20 0 -29 -6 -33 -21z"/>
<path d="M4850 2741 c0 -5 -3 -16 -6 -25 -5 -13 2 -16 40 -16 32 0 44 -4 41
-12 -6 -16 -45 -198 -45 -210 0 -4 13 -8 28 -8 26 0 29 4 40 63 7 34 18 86 24
115 l11 52 44 0 c39 0 43 2 43 25 l0 25 -110 0 c-60 0 -110 -4 -110 -9z"/>
<path d="M5966 2733 c-2 -10 -14 -63 -25 -118 -12 -55 -23 -110 -26 -122 -5
-20 -1 -23 23 -23 28 0 28 0 55 133 15 72 27 135 27 140 0 16 -49 6 -54 -10z"/>
<path d="M6527 2731 c-6 -24 0 -31 29 -31 15 0 23 7 26 25 5 22 2 25 -22 25
-19 0 -29 -6 -33 -19z"/>
<path d="M4218 2719 c-16 -11 -28 -27 -28 -35 0 -8 -7 -14 -15 -14 -17 0 -21
-36 -4 -42 8 -3 7 -22 -2 -66 -16 -77 -7 -97 42 -97 40 0 54 29 18 38 -15 4
-20 11 -15 22 3 9 9 35 12 57 5 29 13 42 30 49 27 10 33 39 8 39 -13 0 -15 7
-11 35 7 40 2 42 -35 14z"/>
<path d="M760 2669 c-39 -16 -59 -39 -70 -79 -25 -92 56 -158 139 -115 16 8
31 21 34 29 8 20 -33 29 -53 11 -20 -18 -42 -19 -58 -3 -28 28 -13 38 58 38
l70 0 0 39 c0 67 -58 106 -120 80z m70 -64 c0 -11 -12 -15 -45 -15 -36 0 -43
3 -38 16 13 35 83 34 83 -1z"/>
<path d="M1008 2664 c-16 -8 -28 -10 -28 -4 0 5 -11 10 -24 10 -22 0 -26 -6
-36 -57 -6 -32 -16 -74 -21 -93 -13 -49 -12 -50 20 -50 26 0 29 4 35 46 8 60
33 112 58 120 36 11 42 -9 26 -90 l-15 -76 27 0 c25 0 27 4 44 80 18 83 13
111 -20 124 -23 9 -36 7 -66 -10z"/>
<path d="M1194 2666 c-17 -8 -39 -24 -48 -37 -16 -23 -22 -93 -10 -124 8 -20
56 -45 86 -45 26 0 88 35 88 49 0 20 -41 23 -61 5 -16 -14 -24 -15 -44 -6 -14
6 -25 18 -25 27 0 12 14 15 70 15 l70 0 0 39 c0 71 -60 107 -126 77z m77 -57
c9 -17 6 -19 -36 -19 -45 0 -52 5 -37 26 18 27 56 24 73 -7z"/>
<path d="M1593 2665 c-50 -22 -70 -65 -65 -143 2 -27 55 -62 95 -62 42 0 82
25 101 64 31 66 17 118 -39 142 -42 17 -51 17 -92 -1z m87 -80 c0 -46 -38 -90
-68 -81 -28 9 -38 48 -22 87 25 60 90 56 90 -6z"/>
<path d="M1914 2666 c-41 -18 -52 -46 -19 -46 14 0 34 5 44 12 24 15 53 3 49
-19 -2 -13 -17 -20 -56 -24 -64 -8 -82 -22 -82 -64 0 -43 30 -70 67 -60 15 3
48 6 71 5 26 0 41 3 38 9 -3 5 -1 43 6 85 10 66 10 79 -3 92 -22 21 -79 26
-115 10z m59 -126 c-10 -39 -73 -52 -73 -16 0 18 27 35 57 36 16 0 20 -4 16
-20z"/>
<path d="M2178 2664 c-16 -8 -28 -10 -28 -4 0 5 -11 10 -24 10 -22 0 -26 -7
-45 -89 -27 -113 -27 -113 6 -109 24 3 28 9 38 58 14 69 29 97 56 105 35 11
41 -6 29 -74 -6 -34 -14 -69 -17 -77 -4 -10 3 -14 24 -14 27 0 29 3 46 80 19
83 15 111 -19 124 -23 9 -36 7 -66 -10z"/>
<path d="M2370 2673 c-21 -8 -50 -34 -50 -46 0 -5 14 -7 33 -3 64 13 72 12 72
-9 0 -16 -8 -21 -47 -25 -80 -10 -113 -65 -67 -111 16 -16 28 -19 47 -14 15 4
47 6 70 5 25 0 41 3 38 9 -3 5 1 41 10 81 16 69 16 73 -3 91 -20 20 -77 33
-103 22z m50 -125 c0 -16 -30 -48 -45 -48 -7 0 -18 6 -24 14 -9 11 -8 18 4 30
19 19 65 22 65 4z"/>
<path d="M2910 2669 c-57 -23 -79 -72 -66 -144 7 -38 44 -65 88 -65 26 0 88
35 88 49 0 20 -41 23 -61 5 -16 -14 -24 -15 -44 -6 -14 6 -25 18 -25 27 0 12
14 15 70 15 l70 0 0 43 c0 66 -57 102 -120 76z m71 -60 c9 -17 6 -19 -36 -19
-49 0 -57 11 -24 34 25 17 45 12 60 -15z"/>
<path d="M3358 2666 c-16 -9 -28 -10 -28 -5 0 6 -12 9 -27 7 -26 -3 -28 -8
-45 -88 -22 -110 -22 -110 7 -110 19 0 26 7 31 28 21 94 31 117 56 132 44 24
52 6 33 -81 -8 -41 -15 -75 -15 -77 0 -2 12 -2 27 0 23 3 28 10 40 58 20 85
19 121 -2 136 -24 18 -43 17 -77 0z"/>
<path d="M3999 2669 c-14 -5 -31 -21 -38 -36 -16 -36 5 -66 59 -82 30 -9 40
-17 38 -29 -4 -22 -51 -27 -68 -8 -15 18 -46 21 -56 5 -11 -18 30 -50 73 -56
73 -10 132 44 105 94 -6 10 -30 25 -54 33 -24 9 -43 22 -43 30 0 16 22 17 83
4 46 -9 44 22 -3 42 -39 16 -59 17 -96 3z"/>
<path d="M4366 2659 c-19 -15 -24 -16 -20 -5 5 12 0 16 -20 16 -18 0 -27 -6
-31 -22 -43 -195 -42 -180 -8 -176 23 3 28 10 38 53 16 70 32 95 65 101 29 6
45 28 34 45 -9 15 -29 10 -58 -12z"/>
<path d="M4563 2661 c-18 -12 -33 -26 -33 -32 0 -7 11 -9 33 -5 64 13 72 12
72 -9 0 -16 -8 -21 -47 -25 -80 -10 -113 -65 -67 -111 16 -16 28 -20 52 -15
18 4 49 6 70 6 35 -1 37 1 37 29 0 17 5 53 11 82 10 46 9 53 -8 70 -29 30 -82
34 -120 10z m67 -113 c0 -16 -30 -48 -45 -48 -7 0 -18 6 -24 14 -9 11 -8 18 4
30 19 19 65 22 65 4z"/>
<path d="M5110 2669 c-38 -16 -59 -39 -70 -79 -25 -92 56 -158 139 -115 16 8
31 21 34 29 9 22 -30 27 -63 8 -23 -14 -31 -14 -44 -3 -35 29 -19 41 54 41
l70 0 0 34 c0 48 -8 65 -41 81 -32 17 -44 18 -79 4z m70 -64 c0 -11 -12 -15
-45 -15 -42 0 -44 1 -33 20 7 11 19 21 28 23 21 5 50 -11 50 -28z"/>
<path d="M5314 2666 c-46 -20 -64 -52 -64 -112 0 -45 4 -56 26 -73 32 -25 64
-27 104 -6 31 16 54 48 43 59 -14 13 -46 5 -63 -16 -15 -19 -22 -21 -37 -12
-50 31 -3 149 51 128 9 -3 16 -12 16 -20 0 -15 18 -18 44 -8 21 8 2 48 -31 63
-31 14 -51 13 -89 -3z"/>
<path d="M5568 2664 c-16 -8 -28 -10 -28 -4 0 5 -11 10 -25 10 -14 0 -25 -1
-25 -3 0 -2 -9 -46 -20 -97 -11 -51 -20 -95 -20 -97 0 -3 12 -3 26 -1 24 3 28
10 44 72 16 66 37 96 67 96 22 0 27 -29 13 -88 -7 -32 -15 -63 -17 -69 -4 -9
5 -13 25 -13 28 0 32 4 37 38 4 20 11 53 16 72 13 49 12 57 -11 80 -24 24 -45
25 -82 4z"/>
<path d="M5754 2666 c-43 -19 -64 -53 -64 -102 0 -56 7 -72 41 -89 82 -43 169
15 169 113 0 69 -76 110 -146 78z m92 -61 c10 -25 -17 -86 -42 -97 -21 -10
-28 -8 -46 10 -20 19 -20 25 -9 62 8 26 20 44 34 49 24 10 55 -2 63 -24z"/>
<path d="M6084 2666 c-43 -19 -64 -53 -64 -102 0 -56 7 -72 41 -89 81 -42 169
15 169 109 0 70 -77 113 -146 82z m92 -61 c9 -22 -16 -84 -37 -96 -47 -25 -79
16 -59 77 18 53 79 65 96 19z"/>
<path d="M6303 2661 c-55 -34 -71 -155 -23 -181 26 -14 73 -13 88 2 18 18 16
-12 -4 -40 -18 -25 -46 -29 -64 -7 -7 8 -23 15 -37 15 -20 0 -24 -4 -21 -22 4
-28 41 -48 91 -48 65 0 89 34 115 165 12 61 22 113 22 118 0 4 -11 7 -25 7
-17 0 -25 -6 -25 -17 0 -15 -2 -15 -17 0 -30 26 -65 29 -100 8z m81 -37 c31
-31 12 -100 -30 -110 -51 -13 -67 44 -28 104 17 26 36 28 58 6z"/>
<path d="M6640 2658 c-42 -29 -60 -61 -60 -111 0 -46 36 -87 76 -87 33 0 91
27 98 47 14 36 -29 46 -59 13 -42 -47 -76 -3 -51 65 20 51 48 63 76 33 12 -14
25 -18 39 -13 26 8 26 16 4 44 -28 34 -81 37 -123 9z"/>
<path d="M6865 2673 c-23 -6 -55 -32 -55 -45 0 -12 47 -10 69 4 15 9 23 9 35
-1 24 -20 1 -41 -46 -41 -52 0 -93 -38 -83 -78 9 -38 34 -55 70 -47 17 3 46 6
65 6 l36 -1 12 80 c6 44 9 86 6 94 -10 27 -61 41 -109 29z m45 -125 c0 -16
-30 -48 -45 -48 -7 0 -18 6 -24 14 -9 11 -8 18 4 30 19 19 65 22 65 4z"/>
<path d="M1357 2663 c-20 -20 -4 -33 40 -33 l47 0 -40 -42 c-48 -51 -84 -97
-84 -109 0 -5 38 -9 84 -9 81 0 96 6 96 36 0 2 -23 4 -50 4 l-51 0 61 70 c33
39 60 75 60 80 0 11 -153 14 -163 3z"/>
<path d="M3747 2663 c-3 -5 -13 -43 -22 -86 -16 -74 -16 -79 0 -97 22 -24 53
-26 83 -4 14 9 22 11 22 4 0 -6 12 -10 26 -8 25 3 28 10 50 98 13 52 23 96 24
98 0 1 -13 2 -29 2 -29 0 -31 -3 -42 -60 -12 -63 -40 -110 -65 -110 -24 0 -26
23 -10 94 9 37 16 69 16 72 0 7 -49 4 -53 -3z"/>
<path d="M4424 2570 l-20 -100 27 0 c25 0 27 5 43 78 9 43 19 88 23 100 5 19
1 22 -24 22 -30 0 -30 0 -49 -100z"/>
<path d="M6510 2648 c-1 -13 -9 -58 -19 -100 l-18 -78 28 0 c26 0 28 4 39 58
6 31 16 73 21 92 13 49 12 50 -21 50 -24 0 -30 -4 -30 -22z"/>
</g>
</svg>
